STARTFONT 2.1
FONT -Adobe-ITC Lubalin Graph-Book-O-Normal--10-100-75-75-P-60-ISO8859-15
SIZE 10 75 75
FONTBOUNDINGBOX 13 13 -1 -2

STARTPROPERTIES 30
FOUNDRY "Adobe"
FAMILY_NAME "ITC Lubalin Graph"
WEIGHT_NAME "Book"
SLANT "O"
SETWIDTH_NAME "Normal"
ADD_STYLE_NAME ""
PIXEL_SIZE 10
POINT_SIZE 100
RESOLUTION_X 75
RESOLUTION_Y 75
SPACING "P"
AVERAGE_WIDTH 60
CHARSET_REGISTRY "ISO8859"
CHARSET_ENCODING "15"
CAP_HEIGHT 8
X_HEIGHT 6
FACE_NAME "ITC Lubalin Graph Book Oblique"
COPYRIGHT "Copyright (c) 1984, 1987 Adobe Systems Incorporated. All Rights Reserved. Copyright (c) 1988, 1991 Digital Equipment Corporation. All Rights Reserved."
NOTICE "ITC Lubalin Graph is a registered trademark of International Typeface Corporation."
_DEC_DEVICE_FONTNAMES "PS=LubalinGraph-BookOblique"
_DEC_PRODUCTINFO "DECwindows Fonts V2.2, 07-Nov-1991"
RELATIVE_SETWIDTH 50
RELATIVE_WEIGHT 40
CHARSET_COLLECTIONS "ASCII ISO8859-1 ADOBE-STANDARD"
FULL_NAME "ITC Lubalin Graph Book Oblique"
WEIGHT 10
QUAD_WIDTH 6
DEFAULT_CHAR 32
FONT_DESCENT 2
FONT_ASCENT 10
ENDPROPERTIES

CHARS 191

STARTCHAR space
ENCODING 32
SWIDTH 300 0
DWIDTH 2 0
BBX 1 1 0 0
BITMAP
00
ENDCHAR

STARTCHAR exclam
ENCODING 33
SWIDTH 140 0
DWIDTH 3 0
BBX 2 8 1 0
BITMAP
40
40
40
40
80
80
00
80
ENDCHAR

STARTCHAR quotedbl
ENCODING 34
SWIDTH 280 0
DWIDTH 4 0
BBX 4 3 0 5
BITMAP
50
50
A0
ENDCHAR

STARTCHAR numbersign
ENCODING 35
SWIDTH 580 0
DWIDTH 7 0
BBX 7 7 0 1
BITMAP
14
14
7E
28
FC
50
50
ENDCHAR

STARTCHAR dollar
ENCODING 36
SWIDTH 580 0
DWIDTH 6 0
BBX 6 10 0 -1
BITMAP
08
3C
54
50
30
28
28
A8
F0
40
ENDCHAR

STARTCHAR percent
ENCODING 37
SWIDTH 800 0
DWIDTH 9 0
BBX 7 8 1 0
BITMAP
64
A8
A8
D0
26
2A
4A
4C
ENDCHAR

STARTCHAR ampersand
ENCODING 38
SWIDTH 720 0
DWIDTH 9 0
BBX 9 8 0 0
BITMAP
1800
2400
2400
1980
6A00
8400
8A00
7100
ENDCHAR

STARTCHAR quoteright
ENCODING 39
SWIDTH 200 0
DWIDTH 3 0
BBX 2 2 1 6
BITMAP
40
80
ENDCHAR

STARTCHAR parenleft
ENCODING 40
SWIDTH 340 0
DWIDTH 4 0
BBX 4 10 0 -2
BITMAP
10
20
40
40
80
80
80
80
40
20
ENDCHAR

STARTCHAR parenright
ENCODING 41
SWIDTH 340 0
DWIDTH 5 0
BBX 4 10 0 -2
BITMAP
40
20
10
10
10
10
20
20
40
80
ENDCHAR

STARTCHAR asterisk
ENCODING 42
SWIDTH 340 0
DWIDTH 5 0
BBX 3 3 1 5
BITMAP
A0
40
A0
ENDCHAR

STARTCHAR plus
ENCODING 43
SWIDTH 660 0
DWIDTH 7 0
BBX 6 5 0 1
BITMAP
10
10
FC
20
20
ENDCHAR

STARTCHAR comma
ENCODING 44
SWIDTH 300 0
DWIDTH 3 0
BBX 2 2 0 -1
BITMAP
40
80
ENDCHAR

STARTCHAR minus
ENCODING 45
SWIDTH 660 0
DWIDTH 7 0
BBX 5 1 1 3
BITMAP
F8
ENDCHAR

STARTCHAR period
ENCODING 46
SWIDTH 300 0
DWIDTH 3 0
BBX 1 1 1 0
BITMAP
80
ENDCHAR

STARTCHAR slash
ENCODING 47
SWIDTH 580 0
DWIDTH 6 0
BBX 7 10 -1 -2
BITMAP
02
04
04
08
10
10
20
40
40
80
ENDCHAR

STARTCHAR zero
ENCODING 48
SWIDTH 580 0
DWIDTH 6 0
BBX 6 8 0 0
BITMAP
38
44
44
84
84
88
88
70
ENDCHAR

STARTCHAR one
ENCODING 49
SWIDTH 580 0
DWIDTH 6 0
BBX 3 8 1 0
BITMAP
60
20
20
20
40
40
40
E0
ENDCHAR

STARTCHAR two
ENCODING 50
SWIDTH 580 0
DWIDTH 6 0
BBX 6 8 0 0
BITMAP
38
44
44
08
10
20
48
F8
ENDCHAR

STARTCHAR three
ENCODING 51
SWIDTH 580 0
DWIDTH 6 0
BBX 6 8 0 0
BITMAP
38
44
04
18
08
88
88
70
ENDCHAR

STARTCHAR four
ENCODING 52
SWIDTH 580 0
DWIDTH 6 0
BBX 5 8 0 0
BITMAP
08
18
28
48
90
F8
10
38
ENDCHAR

STARTCHAR five
ENCODING 53
SWIDTH 580 0
DWIDTH 6 0
BBX 6 8 0 0
BITMAP
3C
20
40
70
08
08
88
70
ENDCHAR

STARTCHAR six
ENCODING 54
SWIDTH 580 0
DWIDTH 6 0
BBX 5 8 0 0
BITMAP
08
10
20
50
88
88
88
70
ENDCHAR

STARTCHAR seven
ENCODING 55
SWIDTH 580 0
DWIDTH 6 0
BBX 5 8 1 0
BITMAP
F8
88
10
20
40
40
80
80
ENDCHAR

STARTCHAR eight
ENCODING 56
SWIDTH 580 0
DWIDTH 6 0
BBX 6 8 0 0
BITMAP
38
44
44
78
88
88
88
70
ENDCHAR

STARTCHAR nine
ENCODING 57
SWIDTH 580 0
DWIDTH 6 0
BBX 5 8 1 0
BITMAP
70
88
88
88
70
20
40
80
ENDCHAR

STARTCHAR colon
ENCODING 58
SWIDTH 300 0
DWIDTH 3 0
BBX 2 5 1 0
BITMAP
40
00
00
00
80
ENDCHAR

STARTCHAR semicolon
ENCODING 59
SWIDTH 300 0
DWIDTH 3 0
BBX 3 6 0 -1
BITMAP
20
00
00
00
40
80
ENDCHAR

STARTCHAR less
ENCODING 60
SWIDTH 660 0
DWIDTH 7 0
BBX 7 5 0 1
BITMAP
06
38
C0
30
0C
ENDCHAR

STARTCHAR equal
ENCODING 61
SWIDTH 660 0
DWIDTH 7 0
BBX 6 3 0 2
BITMAP
7C
00
F8
ENDCHAR

STARTCHAR greater
ENCODING 62
SWIDTH 660 0
DWIDTH 7 0
BBX 7 5 0 1
BITMAP
60
18
06
38
C0
ENDCHAR

STARTCHAR question
ENCODING 63
SWIDTH 520 0
DWIDTH 6 0
BBX 5 8 1 0
BITMAP
70
88
08
10
20
40
00
40
ENDCHAR

STARTCHAR at
ENCODING 64
SWIDTH 900 0
DWIDTH 9 0
BBX 9 8 0 0
BITMAP
1E00
2100
5A80
A480
A500
9A00
4100
3E00
ENDCHAR

STARTCHAR A
ENCODING 65
SWIDTH 820 0
DWIDTH 8 0
BBX 8 8 0 0
BITMAP
3C
0C
14
14
22
7E
42
E7
ENDCHAR

STARTCHAR B
ENCODING 66
SWIDTH 580 0
DWIDTH 6 0
BBX 6 8 0 0
BITMAP
78
24
24
38
44
44
48
F0
ENDCHAR

STARTCHAR C
ENCODING 67
SWIDTH 740 0
DWIDTH 8 0
BBX 8 8 0 0
BITMAP
1D
63
40
80
80
82
44
38
ENDCHAR

STARTCHAR D
ENCODING 68
SWIDTH 720 0
DWIDTH 7 0
BBX 7 8 0 0
BITMAP
7C
26
22
22
42
44
4C
F8
ENDCHAR

STARTCHAR E
ENCODING 69
SWIDTH 560 0
DWIDTH 6 0
BBX 6 8 0 0
BITMAP
7C
24
20
38
40
40
48
F8
ENDCHAR

STARTCHAR F
ENCODING 70
SWIDTH 560 0
DWIDTH 6 0
BBX 6 8 0 0
BITMAP
7C
24
20
38
40
40
40
E0
ENDCHAR

STARTCHAR G
ENCODING 71
SWIDTH 780 0
DWIDTH 8 0
BBX 8 8 0 0
BITMAP
1D
63
40
80
9E
82
46
3A
ENDCHAR

STARTCHAR H
ENCODING 72
SWIDTH 720 0
DWIDTH 8 0
BBX 8 8 0 0
BITMAP
77
22
22
3E
44
44
44
EE
ENDCHAR

STARTCHAR I
ENCODING 73
SWIDTH 300 0
DWIDTH 4 0
BBX 4 8 0 0
BITMAP
70
20
20
20
40
40
40
E0
ENDCHAR

STARTCHAR J
ENCODING 74
SWIDTH 520 0
DWIDTH 5 0
BBX 6 8 -1 0
BITMAP
1C
08
08
08
10
10
90
60
ENDCHAR

STARTCHAR K
ENCODING 75
SWIDTH 700 0
DWIDTH 7 0
BBX 8 8 0 0
BITMAP
77
24
28
30
50
48
44
E6
ENDCHAR

STARTCHAR L
ENCODING 76
SWIDTH 520 0
DWIDTH 5 0
BBX 5 8 0 0
BITMAP
70
20
20
20
40
40
48
F8
ENDCHAR

STARTCHAR M
ENCODING 77
SWIDTH 980 0
DWIDTH 10 0
BBX 10 8 0 0
BITMAP
71C0
3180
2A80
2A80
5500
4900
4900
EB80
ENDCHAR

STARTCHAR N
ENCODING 78
SWIDTH 800 0
DWIDTH 8 0
BBX 9 8 0 0
BITMAP
7380
3100
2900
2900
4A00
4A00
4600
E600
ENDCHAR

STARTCHAR O
ENCODING 79
SWIDTH 800 0
DWIDTH 8 0
BBX 8 8 0 0
BITMAP
1C
62
41
81
81
82
46
38
ENDCHAR

STARTCHAR P
ENCODING 80
SWIDTH 580 0
DWIDTH 6 0
BBX 6 8 0 0
BITMAP
78
24
24
24
78
40
40
E0
ENDCHAR

STARTCHAR Q
ENCODING 81
SWIDTH 860 0
DWIDTH 9 0
BBX 9 8 0 0
BITMAP
1C00
6200
4100
8100
8100
F200
4E80
3B00
ENDCHAR

STARTCHAR R
ENCODING 82
SWIDTH 640 0
DWIDTH 6 0
BBX 6 8 0 0
BITMAP
78
24
24
24
78
50
48
EC
ENDCHAR

STARTCHAR S
ENCODING 83
SWIDTH 500 0
DWIDTH 6 0
BBX 6 8 0 0
BITMAP
3C
44
40
60
18
08
88
F0
ENDCHAR

STARTCHAR T
ENCODING 84
SWIDTH 540 0
DWIDTH 6 0
BBX 5 8 1 0
BITMAP
F8
A8
20
20
40
40
40
E0
ENDCHAR

STARTCHAR U
ENCODING 85
SWIDTH 700 0
DWIDTH 7 0
BBX 7 8 1 0
BITMAP
EE
44
44
44
88
88
88
70
ENDCHAR

STARTCHAR V
ENCODING 86
SWIDTH 780 0
DWIDTH 8 0
BBX 7 8 1 0
BITMAP
EE
44
48
48
50
50
20
20
ENDCHAR

STARTCHAR W
ENCODING 87
SWIDTH 1040 0
DWIDTH 11 0
BBX 11 8 1 0
BITMAP
E4E0
4440
4C80
4C80
5500
5500
2200
2200
ENDCHAR

STARTCHAR X
ENCODING 88
SWIDTH 740 0
DWIDTH 8 0
BBX 8 8 0 0
BITMAP
77
22
14
08
18
24
42
E7
ENDCHAR

STARTCHAR Y
ENCODING 89
SWIDTH 680 0
DWIDTH 7 0
BBX 7 8 1 0
BITMAP
EE
44
48
48
50
20
20
70
ENDCHAR

STARTCHAR Z
ENCODING 90
SWIDTH 520 0
DWIDTH 6 0
BBX 6 8 0 0
BITMAP
7C
44
08
10
20
40
88
F8
ENDCHAR

STARTCHAR bracketleft
ENCODING 91
SWIDTH 300 0
DWIDTH 4 0
BBX 4 10 0 -2
BITMAP
30
20
20
40
40
40
40
80
80
C0
ENDCHAR

STARTCHAR backslash
ENCODING 92
SWIDTH 580 0
DWIDTH 5 0
BBX 3 8 1 0
BITMAP
80
80
80
40
40
40
20
20
ENDCHAR

STARTCHAR bracketright
ENCODING 93
SWIDTH 300 0
DWIDTH 4 0
BBX 4 10 0 -2
BITMAP
30
10
10
20
20
20
20
40
40
C0
ENDCHAR

STARTCHAR asciicircum
ENCODING 94
SWIDTH 660 0
DWIDTH 7 0
BBX 5 6 1 2
BITMAP
20
20
50
50
88
88
ENDCHAR

STARTCHAR underscore
ENCODING 95
SWIDTH 500 0
DWIDTH 5 0
BBX 6 1 -1 -2
BITMAP
FC
ENDCHAR

STARTCHAR quoteleft
ENCODING 96
SWIDTH 200 0
DWIDTH 3 0
BBX 2 2 1 6
BITMAP
80
40
ENDCHAR

STARTCHAR a
ENCODING 97
SWIDTH 660 0
DWIDTH 6 0
BBX 7 6 0 0
BITMAP
36
4C
88
88
98
6C
ENDCHAR

STARTCHAR b
ENCODING 98
SWIDTH 660 0
DWIDTH 7 0
BBX 7 8 0 0
BITMAP
60
20
2C
32
42
42
64
D8
ENDCHAR

STARTCHAR c
ENCODING 99
SWIDTH 560 0
DWIDTH 6 0
BBX 6 6 0 0
BITMAP
34
4C
80
80
88
70
ENDCHAR

STARTCHAR d
ENCODING 100
SWIDTH 660 0
DWIDTH 6 0
BBX 6 8 0 0
BITMAP
0C
04
34
48
88
88
98
6C
ENDCHAR

STARTCHAR e
ENCODING 101
SWIDTH 580 0
DWIDTH 6 0
BBX 6 6 0 0
BITMAP
38
44
FC
80
88
70
ENDCHAR

STARTCHAR f
ENCODING 102
SWIDTH 300 0
DWIDTH 4 0
BBX 5 8 0 0
BITMAP
18
20
70
20
40
40
40
E0
ENDCHAR

STARTCHAR g
ENCODING 103
SWIDTH 660 0
DWIDTH 6 0
BBX 8 8 -1 -2
BITMAP
1B
26
44
44
4C
34
88
70
ENDCHAR

STARTCHAR h
ENCODING 104
SWIDTH 640 0
DWIDTH 7 0
BBX 7 8 0 0
BITMAP
60
20
2C
32
42
44
44
EE
ENDCHAR

STARTCHAR i
ENCODING 105
SWIDTH 260 0
DWIDTH 3 0
BBX 3 8 0 0
BITMAP
20
00
60
20
40
40
40
E0
ENDCHAR

STARTCHAR j
ENCODING 106
SWIDTH 240 0
DWIDTH 3 0
BBX 3 10 0 -2
BITMAP
20
00
60
20
20
40
40
40
40
80
ENDCHAR

STARTCHAR k
ENCODING 107
SWIDTH 580 0
DWIDTH 6 0
BBX 6 8 0 0
BITMAP
60
20
2C
28
70
50
48
EC
ENDCHAR

STARTCHAR l
ENCODING 108
SWIDTH 280 0
DWIDTH 3 0
BBX 3 8 0 0
BITMAP
60
20
20
20
40
40
40
E0
ENDCHAR

STARTCHAR m
ENCODING 109
SWIDTH 980 0
DWIDTH 9 0
BBX 9 6 0 0
BITMAP
7B00
2480
2480
4900
4900
EB80
ENDCHAR

STARTCHAR n
ENCODING 110
SWIDTH 660 0
DWIDTH 7 0
BBX 7 6 0 0
BITMAP
6C
32
22
44
44
EE
ENDCHAR

STARTCHAR o
ENCODING 111
SWIDTH 580 0
DWIDTH 6 0
BBX 6 6 0 0
BITMAP
38
44
84
84
88
70
ENDCHAR

STARTCHAR p
ENCODING 112
SWIDTH 660 0
DWIDTH 6 0
BBX 7 8 -1 -2
BITMAP
6C
32
22
22
64
58
40
E0
ENDCHAR

STARTCHAR q
ENCODING 113
SWIDTH 660 0
DWIDTH 6 0
BBX 7 8 0 -2
BITMAP
36
4C
88
88
98
68
10
38
ENDCHAR

STARTCHAR r
ENCODING 114
SWIDTH 360 0
DWIDTH 4 0
BBX 5 6 0 0
BITMAP
68
30
20
40
40
E0
ENDCHAR

STARTCHAR s
ENCODING 115
SWIDTH 420 0
DWIDTH 5 0
BBX 5 6 0 0
BITMAP
38
48
60
10
90
E0
ENDCHAR

STARTCHAR t
ENCODING 116
SWIDTH 320 0
DWIDTH 4 0
BBX 3 8 1 0
BITMAP
40
40
E0
40
80
80
80
C0
ENDCHAR

STARTCHAR u
ENCODING 117
SWIDTH 640 0
DWIDTH 6 0
BBX 6 6 0 0
BITMAP
CC
44
44
88
98
6C
ENDCHAR

STARTCHAR v
ENCODING 118
SWIDTH 640 0
DWIDTH 6 0
BBX 7 6 0 0
BITMAP
EE
44
48
48
30
20
ENDCHAR

STARTCHAR w
ENCODING 119
SWIDTH 900 0
DWIDTH 8 0
BBX 9 6 0 0
BITMAP
EB80
4900
5500
5600
2400
2400
ENDCHAR

STARTCHAR x
ENCODING 120
SWIDTH 600 0
DWIDTH 5 0
BBX 6 6 0 0
BITMAP
CC
68
30
20
50
D8
ENDCHAR

STARTCHAR y
ENCODING 121
SWIDTH 640 0
DWIDTH 6 0
BBX 7 8 0 -2
BITMAP
EE
44
48
28
30
10
20
70
ENDCHAR

STARTCHAR z
ENCODING 122
SWIDTH 420 0
DWIDTH 5 0
BBX 5 6 0 0
BITMAP
78
50
20
40
90
F0
ENDCHAR

STARTCHAR braceleft
ENCODING 123
SWIDTH 300 0
DWIDTH 4 0
BBX 4 10 0 -2
BITMAP
10
20
20
40
80
40
40
80
80
40
ENDCHAR

STARTCHAR bar
ENCODING 124
SWIDTH 660 0
DWIDTH 7 0
BBX 2 8 3 0
BITMAP
40
40
40
40
80
80
80
80
ENDCHAR

STARTCHAR braceright
ENCODING 125
SWIDTH 300 0
DWIDTH 4 0
BBX 4 10 -1 -2
BITMAP
20
10
10
20
10
20
20
20
40
80
ENDCHAR

STARTCHAR asciitilde
ENCODING 126
SWIDTH 660 0
DWIDTH 8 0
BBX 6 2 1 3
BITMAP
64
98
ENDCHAR

STARTCHAR space
ENCODING 160
SWIDTH 300 0
DWIDTH 2 0
BBX 1 1 0 0
BITMAP
00
ENDCHAR

STARTCHAR exclamdown
ENCODING 161
SWIDTH 140 0
DWIDTH 3 0
BBX 3 8 0 -2
BITMAP
20
00
40
40
40
40
80
80
ENDCHAR

STARTCHAR cent
ENCODING 162
SWIDTH 580 0
DWIDTH 6 0
BBX 6 7 0 0
BITMAP
10
38
54
A0
A8
70
20
ENDCHAR

STARTCHAR sterling
ENCODING 163
SWIDTH 640 0
DWIDTH 7 0
BBX 6 8 0 0
BITMAP
3C
44
40
20
F8
20
44
F8
ENDCHAR

STARTCHAR EuroSign
ENCODING 164
SWIDTH 600 0
DWIDTH 6 0
BBX 7 6 0 0
BITMAP
1A
26
40
F8
40
38
ENDCHAR

STARTCHAR yen
ENCODING 165
SWIDTH 740 0
DWIDTH 8 0
BBX 7 8 1 0
BITMAP
EE
44
28
F8
20
F8
20
70
ENDCHAR

STARTCHAR Scaron
ENCODING 166
SWIDTH 500 0
DWIDTH 6 0
BBX 6 11 0 0
BITMAP
14
08
00
3C
44
40
60
18
08
88
F0
ENDCHAR

STARTCHAR section
ENCODING 167
SWIDTH 440 0
DWIDTH 6 0
BBX 6 9 0 -1
BITMAP
18
24
30
48
48
30
90
90
60
ENDCHAR

STARTCHAR scaron
ENCODING 168
SWIDTH 420 0
DWIDTH 5 0
BBX 5 9 0 0
BITMAP
28
10
00
38
48
60
10
90
E0
ENDCHAR

STARTCHAR copyright
ENCODING 169
SWIDTH 820 0
DWIDTH 9 0
BBX 9 8 0 0
BITMAP
1E00
2100
4C80
9280
A080
9D00
4200
3C00
ENDCHAR

STARTCHAR ordfeminine
ENCODING 170
SWIDTH 420 0
DWIDTH 5 0
BBX 5 5 0 3
BITMAP
38
50
70
00
F0
ENDCHAR

STARTCHAR guillemotleft
ENCODING 171
SWIDTH 320 0
DWIDTH 6 0
BBX 4 3 1 2
BITMAP
50
A0
50
ENDCHAR

STARTCHAR logicalnot
ENCODING 172
SWIDTH 660 0
DWIDTH 8 0
BBX 6 3 1 2
BITMAP
FC
04
04
ENDCHAR

STARTCHAR hyphen
ENCODING 173
SWIDTH 300 0
DWIDTH 4 0
BBX 3 1 0 2
BITMAP
E0
ENDCHAR

STARTCHAR registered
ENCODING 174
SWIDTH 820 0
DWIDTH 9 0
BBX 9 8 0 0
BITMAP
1E00
2100
5C80
9280
AC80
A500
4200
3C00
ENDCHAR

STARTCHAR macron
ENCODING 175
SWIDTH 460 0
DWIDTH 5 0
BBX 3 1 2 7
BITMAP
E0
ENDCHAR

STARTCHAR degree
ENCODING 176
SWIDTH 400 0
DWIDTH 4 0
BBX 3 3 1 5
BITMAP
60
A0
C0
ENDCHAR

STARTCHAR plusminus
ENCODING 177
SWIDTH 660 0
DWIDTH 7 0
BBX 7 5 0 1
BITMAP
08
7E
10
00
FC
ENDCHAR

STARTCHAR twosuperior
ENCODING 178
SWIDTH 348 0
DWIDTH 3 0
BBX 3 4 0 4
BITMAP
60
A0
40
E0
ENDCHAR

STARTCHAR threesuperior
ENCODING 179
SWIDTH 348 0
DWIDTH 3 0
BBX 3 4 0 4
BITMAP
E0
40
20
C0
ENDCHAR

STARTCHAR Zcaron
ENCODING 180
SWIDTH 520 0
DWIDTH 6 0
BBX 6 11 0 0
BITMAP
14
08
00
7C
44
08
10
20
40
88
F8
ENDCHAR

STARTCHAR mu
ENCODING 181
SWIDTH 640 0
DWIDTH 6 0
BBX 7 8 -1 -2
BITMAP
66
22
22
44
4C
B6
80
80
ENDCHAR

STARTCHAR paragraph
ENCODING 182
SWIDTH 500 0
DWIDTH 7 0
BBX 6 9 1 -1
BITMAP
7C
E8
E8
68
28
50
50
50
50
ENDCHAR

STARTCHAR periodcentered
ENCODING 183
SWIDTH 300 0
DWIDTH 3 0
BBX 1 1 1 3
BITMAP
80
ENDCHAR

STARTCHAR zcaron
ENCODING 184
SWIDTH 420 0
DWIDTH 5 0
BBX 5 9 0 0
BITMAP
28
10
00
78
50
20
40
90
F0
ENDCHAR

STARTCHAR onesuperior
ENCODING 185
SWIDTH 348 0
DWIDTH 3 0
BBX 3 4 0 4
BITMAP
C0
40
40
E0
ENDCHAR

STARTCHAR ordmasculine
ENCODING 186
SWIDTH 340 0
DWIDTH 5 0
BBX 5 5 0 3
BITMAP
30
58
30
00
F0
ENDCHAR

STARTCHAR guillemotright
ENCODING 187
SWIDTH 320 0
DWIDTH 6 0
BBX 4 3 1 2
BITMAP
A0
50
A0
ENDCHAR

STARTCHAR Ligature_OE
ENCODING 188
SWIDTH 1120 0
DWIDTH 11 0
BBX 11 8 0 0
BITMAP
1DE0
6320
4100
81C0
8200
8200
4640
3BC0
ENDCHAR

STARTCHAR Ligature_oe
ENCODING 189
SWIDTH 1060 0
DWIDTH 11 0
BBX 11 6 0 0
BITMAP
3BC0
4420
87E0
8800
8840
7780
ENDCHAR

STARTCHAR Ydiaeresis
ENCODING 190
SWIDTH 680 0
DWIDTH 7 0
BBX 7 10 1 0
BITMAP
0A
00
EE
44
48
48
50
20
20
70
ENDCHAR

STARTCHAR questiondown
ENCODING 191
SWIDTH 520 0
DWIDTH 6 0
BBX 5 8 0 -2
BITMAP
10
00
10
20
40
80
88
70
ENDCHAR

STARTCHAR Agrave
ENCODING 192
SWIDTH 820 0
DWIDTH 8 0
BBX 8 11 0 0
BITMAP
10
08
00
3C
0C
14
14
22
7E
42
E7
ENDCHAR

STARTCHAR Aacute
ENCODING 193
SWIDTH 820 0
DWIDTH 8 0
BBX 8 11 0 0
BITMAP
02
04
00
3C
0C
14
14
22
7E
42
E7
ENDCHAR

STARTCHAR Acircumflex
ENCODING 194
SWIDTH 820 0
DWIDTH 8 0
BBX 8 11 0 0
BITMAP
08
14
00
3C
0C
14
14
22
7E
42
E7
ENDCHAR

STARTCHAR Atilde
ENCODING 195
SWIDTH 820 0
DWIDTH 8 0
BBX 8 11 0 0
BITMAP
09
16
00
3C
0C
14
14
22
7E
42
E7
ENDCHAR

STARTCHAR Adieresis
ENCODING 196
SWIDTH 820 0
DWIDTH 8 0
BBX 8 10 0 0
BITMAP
14
00
3C
0C
14
14
22
7E
42
E7
ENDCHAR

STARTCHAR Aring
ENCODING 197
SWIDTH 820 0
DWIDTH 8 0
BBX 8 11 0 0
BITMAP
08
14
08
3C
0C
14
14
22
7E
42
E7
ENDCHAR

STARTCHAR AE
ENCODING 198
SWIDTH 1000 0
DWIDTH 10 0
BBX 10 8 0 0
BITMAP
0FC0
0640
0A00
1380
3C00
2400
4480
E780
ENDCHAR

STARTCHAR Ccedilla
ENCODING 199
SWIDTH 740 0
DWIDTH 8 0
BBX 8 10 0 -2
BITMAP
1D
63
40
80
80
82
44
38
10
60
ENDCHAR

STARTCHAR Egrave
ENCODING 200
SWIDTH 560 0
DWIDTH 6 0
BBX 6 11 0 0
BITMAP
20
10
00
7C
24
20
38
40
40
48
F8
ENDCHAR

STARTCHAR Eacute
ENCODING 201
SWIDTH 560 0
DWIDTH 6 0
BBX 6 11 0 0
BITMAP
04
08
00
7C
24
20
38
40
40
48
F8
ENDCHAR

STARTCHAR Ecircumflex
ENCODING 202
SWIDTH 560 0
DWIDTH 6 0
BBX 6 11 0 0
BITMAP
08
14
00
7C
24
20
38
40
40
48
F8
ENDCHAR

STARTCHAR Edieresis
ENCODING 203
SWIDTH 560 0
DWIDTH 6 0
BBX 6 10 0 0
BITMAP
14
00
7C
24
20
38
40
40
48
F8
ENDCHAR

STARTCHAR Igrave
ENCODING 204
SWIDTH 300 0
DWIDTH 4 0
BBX 4 11 0 0
BITMAP
40
20
00
70
20
20
20
40
40
40
E0
ENDCHAR

STARTCHAR Iacute
ENCODING 205
SWIDTH 300 0
DWIDTH 4 0
BBX 5 11 0 0
BITMAP
08
10
00
70
20
20
20
40
40
40
E0
ENDCHAR

STARTCHAR Icircumflex
ENCODING 206
SWIDTH 300 0
DWIDTH 4 0
BBX 5 11 0 0
BITMAP
10
28
00
70
20
20
20
40
40
40
E0
ENDCHAR

STARTCHAR Idieresis
ENCODING 207
SWIDTH 300 0
DWIDTH 4 0
BBX 4 10 0 0
BITMAP
50
00
70
20
20
20
40
40
40
E0
ENDCHAR

STARTCHAR Eth
ENCODING 208
SWIDTH 720 0
DWIDTH 7 0
BBX 7 8 0 0
BITMAP
7C
26
22
F2
42
44
4C
F8
ENDCHAR

STARTCHAR Ntilde
ENCODING 209
SWIDTH 800 0
DWIDTH 8 0
BBX 9 11 0 0
BITMAP
0900
1600
0000
7380
3100
2900
2900
4A00
4A00
4600
E600
ENDCHAR

STARTCHAR Ograve
ENCODING 210
SWIDTH 800 0
DWIDTH 8 0
BBX 8 11 0 0
BITMAP
08
04
00
1C
62
41
81
81
82
46
38
ENDCHAR

STARTCHAR Oacute
ENCODING 211
SWIDTH 800 0
DWIDTH 8 0
BBX 8 11 0 0
BITMAP
02
04
00
1C
62
41
81
81
82
46
38
ENDCHAR

STARTCHAR Ocircumflex
ENCODING 212
SWIDTH 800 0
DWIDTH 8 0
BBX 8 11 0 0
BITMAP
04
0A
00
1C
62
41
81
81
82
46
38
ENDCHAR

STARTCHAR Otilde
ENCODING 213
SWIDTH 800 0
DWIDTH 8 0
BBX 8 11 0 0
BITMAP
09
16
00
1C
62
41
81
81
82
46
38
ENDCHAR

STARTCHAR Odieresis
ENCODING 214
SWIDTH 800 0
DWIDTH 8 0
BBX 8 10 0 0
BITMAP
0A
00
1C
62
41
81
81
82
46
38
ENDCHAR

STARTCHAR multiply
ENCODING 215
SWIDTH 660 0
DWIDTH 7 0
BBX 6 5 0 1
BITMAP
44
28
30
50
88
ENDCHAR

STARTCHAR Oslash
ENCODING 216
SWIDTH 800 0
DWIDTH 8 0
BBX 8 8 0 0
BITMAP
1D
62
45
89
91
A2
46
B8
ENDCHAR

STARTCHAR Ugrave
ENCODING 217
SWIDTH 700 0
DWIDTH 7 0
BBX 7 11 1 0
BITMAP
20
10
00
EE
44
44
44
88
88
88
70
ENDCHAR

STARTCHAR Uacute
ENCODING 218
SWIDTH 700 0
DWIDTH 7 0
BBX 7 11 1 0
BITMAP
04
08
00
EE
44
44
44
88
88
88
70
ENDCHAR

STARTCHAR Ucircumflex
ENCODING 219
SWIDTH 700 0
DWIDTH 7 0
BBX 7 11 1 0
BITMAP
08
14
00
EE
44
44
44
88
88
88
70
ENDCHAR

STARTCHAR Udieresis
ENCODING 220
SWIDTH 700 0
DWIDTH 7 0
BBX 7 10 1 0
BITMAP
14
00
EE
44
44
44
88
88
88
70
ENDCHAR

STARTCHAR Yacute
ENCODING 221
SWIDTH 680 0
DWIDTH 7 0
BBX 7 11 1 0
BITMAP
04
08
00
EE
44
48
48
50
20
20
70
ENDCHAR

STARTCHAR Thorn
ENCODING 222
SWIDTH 580 0
DWIDTH 6 0
BBX 6 8 0 0
BITMAP
60
38
24
24
44
78
40
E0
ENDCHAR

STARTCHAR germandbls
ENCODING 223
SWIDTH 580 0
DWIDTH 7 0
BBX 6 8 0 0
BITMAP
18
24
24
28
44
44
64
D8
ENDCHAR

STARTCHAR agrave
ENCODING 224
SWIDTH 660 0
DWIDTH 6 0
BBX 7 9 0 0
BITMAP
20
10
00
36
4C
88
88
98
6C
ENDCHAR

STARTCHAR aacute
ENCODING 225
SWIDTH 660 0
DWIDTH 6 0
BBX 7 9 0 0
BITMAP
08
10
00
36
4C
88
88
98
6C
ENDCHAR

STARTCHAR acircumflex
ENCODING 226
SWIDTH 660 0
DWIDTH 6 0
BBX 7 9 0 0
BITMAP
10
28
00
36
4C
88
88
98
6C
ENDCHAR

STARTCHAR atilde
ENCODING 227
SWIDTH 660 0
DWIDTH 6 0
BBX 7 9 0 0
BITMAP
14
28
00
36
4C
88
88
98
6C
ENDCHAR

STARTCHAR adieresis
ENCODING 228
SWIDTH 660 0
DWIDTH 6 0
BBX 7 8 0 0
BITMAP
28
00
36
4C
88
88
98
6C
ENDCHAR

STARTCHAR aring
ENCODING 229
SWIDTH 660 0
DWIDTH 6 0
BBX 7 9 0 0
BITMAP
10
28
10
36
4C
88
88
98
6C
ENDCHAR

STARTCHAR ae
ENCODING 230
SWIDTH 1060 0
DWIDTH 11 0
BBX 11 6 0 0
BITMAP
35C0
4E20
87E0
8C00
9C40
6B80
ENDCHAR

STARTCHAR ccedilla
ENCODING 231
SWIDTH 560 0
DWIDTH 6 0
BBX 6 8 0 -2
BITMAP
34
4C
80
80
88
70
20
C0
ENDCHAR

STARTCHAR egrave
ENCODING 232
SWIDTH 580 0
DWIDTH 6 0
BBX 6 9 0 0
BITMAP
20
10
00
38
44
FC
80
88
70
ENDCHAR

STARTCHAR eacute
ENCODING 233
SWIDTH 580 0
DWIDTH 6 0
BBX 6 9 0 0
BITMAP
08
10
00
38
44
FC
80
88
70
ENDCHAR

STARTCHAR ecircumflex
ENCODING 234
SWIDTH 580 0
DWIDTH 6 0
BBX 6 9 0 0
BITMAP
10
28
00
38
44
FC
80
88
70
ENDCHAR

STARTCHAR edieresis
ENCODING 235
SWIDTH 580 0
DWIDTH 6 0
BBX 6 8 0 0
BITMAP
28
00
38
44
FC
80
88
70
ENDCHAR

STARTCHAR igrave
ENCODING 236
SWIDTH 260 0
DWIDTH 3 0
BBX 3 9 0 0
BITMAP
40
20
00
60
20
40
40
40
E0
ENDCHAR

STARTCHAR iacute
ENCODING 237
SWIDTH 260 0
DWIDTH 3 0
BBX 4 9 0 0
BITMAP
10
20
00
60
20
40
40
40
E0
ENDCHAR

STARTCHAR icircumflex
ENCODING 238
SWIDTH 260 0
DWIDTH 3 0
BBX 4 9 0 0
BITMAP
20
50
00
60
20
40
40
40
E0
ENDCHAR

STARTCHAR idieresis
ENCODING 239
SWIDTH 260 0
DWIDTH 3 0
BBX 4 8 0 0
BITMAP
50
00
60
20
40
40
40
E0
ENDCHAR

STARTCHAR eth
ENCODING 240
SWIDTH 580 0
DWIDTH 6 0
BBX 6 9 0 0
BITMAP
6C
30
48
3C
44
84
84
88
70
ENDCHAR

STARTCHAR ntilde
ENCODING 241
SWIDTH 660 0
DWIDTH 7 0
BBX 7 9 0 0
BITMAP
0A
14
00
6C
32
22
44
44
EE
ENDCHAR

STARTCHAR ograve
ENCODING 242
SWIDTH 580 0
DWIDTH 6 0
BBX 6 9 0 0
BITMAP
20
10
00
38
44
84
84
88
70
ENDCHAR

STARTCHAR oacute
ENCODING 243
SWIDTH 580 0
DWIDTH 6 0
BBX 6 9 0 0
BITMAP
08
10
00
38
44
84
84
88
70
ENDCHAR

STARTCHAR ocircumflex
ENCODING 244
SWIDTH 580 0
DWIDTH 6 0
BBX 6 9 0 0
BITMAP
10
28
00
38
44
84
84
88
70
ENDCHAR

STARTCHAR otilde
ENCODING 245
SWIDTH 580 0
DWIDTH 6 0
BBX 6 9 0 0
BITMAP
14
28
00
38
44
84
84
88
70
ENDCHAR

STARTCHAR odieresis
ENCODING 246
SWIDTH 580 0
DWIDTH 6 0
BBX 6 8 0 0
BITMAP
28
00
38
44
84
84
88
70
ENDCHAR

STARTCHAR divide
ENCODING 247
SWIDTH 660 0
DWIDTH 7 0
BBX 6 5 0 1
BITMAP
10
00
FC
00
20
ENDCHAR

STARTCHAR oslash
ENCODING 248
SWIDTH 580 0
DWIDTH 6 0
BBX 8 6 -1 0
BITMAP
1D
26
4A
52
64
B8
ENDCHAR

STARTCHAR ugrave
ENCODING 249
SWIDTH 640 0
DWIDTH 6 0
BBX 6 9 0 0
BITMAP
20
10
00
CC
44
44
88
98
6C
ENDCHAR

STARTCHAR uacute
ENCODING 250
SWIDTH 640 0
DWIDTH 6 0
BBX 6 9 0 0
BITMAP
08
10
00
CC
44
44
88
98
6C
ENDCHAR

STARTCHAR ucircumflex
ENCODING 251
SWIDTH 640 0
DWIDTH 6 0
BBX 6 9 0 0
BITMAP
10
28
00
CC
44
44
88
98
6C
ENDCHAR

STARTCHAR udieresis
ENCODING 252
SWIDTH 640 0
DWIDTH 6 0
BBX 6 8 0 0
BITMAP
28
00
CC
44
44
88
98
6C
ENDCHAR

STARTCHAR yacute
ENCODING 253
SWIDTH 640 0
DWIDTH 6 0
BBX 7 11 0 -2
BITMAP
08
10
00
EE
44
48
28
30
10
20
70
ENDCHAR

STARTCHAR thorn
ENCODING 254
SWIDTH 660 0
DWIDTH 6 0
BBX 7 10 -1 -2
BITMAP
30
10
1C
32
22
22
64
58
40
E0
ENDCHAR

STARTCHAR ydieresis
ENCODING 255
SWIDTH 640 0
DWIDTH 6 0
BBX 7 10 0 -2
BITMAP
28
00
EE
44
48
48
30
20
40
E0
ENDCHAR
ENDFONT
